<svg width="134" height="124" viewBox="0 0 134 124" fill="none" xmlns="http://www.w3.org/2000/svg">
<path d="M7.82887 43.8635C3.51263 57.6616 -0.854976 71.8667 0.14424 86.3065C1.14252 100.746 8.77018 115.675 22.0859 120.909C30.6325 124.268 40.5854 125.173 49.272 122.204C67.4568 115.987 86.1581 111.345 107.721 115.419C114.611 116.72 122.209 113.54 127.185 108.536C132.4 103.291 134.744 95.1506 133.793 87.766C131.573 70.552 132.753 53.6616 133.491 37.6837C133.893 28.9844 131.699 19.7125 126.006 13.1883C119.223 5.41466 108.068 2.36882 97.8918 1.21976C83.5237 -0.40254 68.9276 -0.614558 54.679 1.86622C40.4304 4.347 20.1855 12.7075 7.83073 43.8616" fill="#F6F6F6"/>
<path d="M26.7007 68.5234H96.2118L107.115 78.8819H37.6039L26.7007 68.5234Z" fill="#DAD8DA" stroke="#B0AEAF" stroke-linejoin="round"/>
<path d="M89.7784 78.1601C90.3307 78.0688 90.5568 77.9775 91.0624 77.8601C91.0591 77.8503 91.0558 77.8427 91.0526 77.834C91.0471 77.8198 91.0374 77.7938 91.0211 77.7492L91.0134 77.7264C90.9221 77.4709 90.9645 77.5872 91.0069 77.7068L83.4816 54.5273L75.6203 63.5128H57.3689L49.6327 54.5273L41.6322 77.9786C41.5594 78.1677 41.9279 77.5633 41.7344 78.1449C42.241 78.2623 42.7607 78.433 43.3184 78.4874C45.0753 78.6591 46.9289 78.7852 48.8619 78.8787H83.2989C85.5406 78.7309 87.6932 78.5048 89.7784 78.159V78.1601Z" fill="white"/>
<path d="M26.7007 111.895V68.5234L37.6039 78.8819V118.567L26.7007 111.895Z" fill="#F1F1F1" stroke="#B0AEAF" stroke-linejoin="round"/>
<path d="M107.115 78.8789H37.604V118.564H107.115V78.8789Z" fill="#F1F1F1" stroke="#B0AEAF" stroke-linejoin="round"/>
<path d="M58.6136 73.5983C59.2675 73.5983 59.7975 73.0683 59.7975 72.4144C59.7975 71.7605 59.2675 71.2305 58.6136 71.2305C57.9597 71.2305 57.4297 71.7605 57.4297 72.4144C57.4297 73.0683 57.9597 73.5983 58.6136 73.5983Z" fill="#B0AEAF" stroke="#B0AEAF" stroke-miterlimit="10"/>
<path d="M74.4613 73.5983C75.1151 73.5983 75.6452 73.0683 75.6452 72.4144C75.6452 71.7605 75.1151 71.2305 74.4613 71.2305C73.8074 71.2305 73.2773 71.7605 73.2773 72.4144C73.2773 73.0683 73.8074 73.5983 74.4613 73.5983Z" fill="#B0AEAF" stroke="#B0AEAF" stroke-miterlimit="10"/>
<path d="M65.0846 74.9062H67.9906C68.0471 74.9062 68.0667 74.9802 68.0188 75.0095L66.5653 75.8575C66.5479 75.8673 66.5272 75.8673 66.5098 75.8575L65.0563 75.0095C65.0074 74.9813 65.028 74.9062 65.0846 74.9062Z" fill="#B0AEAF" stroke="#B0AEAF" stroke-miterlimit="10"/>
<path d="M66.5381 76.8189V75.4316" stroke="#B0AEAF" stroke-miterlimit="10" stroke-linecap="round"/>
<path d="M41.5786 77.8204L49.6323 54.3691L57.3686 63.3556H75.2992L83.4823 54.3691L91.4958 77.8204" stroke="#B0AEAF" stroke-miterlimit="10" stroke-linecap="round"/>
<path d="M95.5822 73.0962C95.418 72.8211 95.218 72.5613 94.9788 72.3199C94.5939 71.9318 94.108 71.5904 93.4991 71.311C92.6512 70.9229 91.8651 70.836 91.1378 70.9784C90.865 71.0316 90.6008 71.1175 90.3442 71.2317C86.6924 72.8668 84.1735 82.4393 83.4092 85.1354C84.055 85.0191 84.4279 85.0724 85.0562 85.0278C89.0603 84.744 90.9813 85.3822 93.21 84.3722C95.6604 80.5563 96.7617 75.0748 95.5811 73.0962H95.5822Z" fill="white" stroke="#B0AEAF" stroke-miterlimit="10"/>
<path d="M37.5728 79.1766L37.4419 79.0195L37.5314 79.2759L37.5728 79.1766Z" fill="#DAD8DA"/>
<path d="M36.8072 79.458C36.8811 79.6809 36.8561 79.8744 37.104 80.2212L36.9844 79.8385C37.1877 80.0897 37.2431 80.0244 37.242 79.8961L37.1855 79.9614C37.1779 79.9135 37.0474 79.7559 37.0387 79.7081C37.2388 79.7668 37.0061 79.3874 37.3083 79.6037L37.3225 79.6352L37.2757 79.4113C37.3279 79.433 37.4073 79.5624 37.4334 79.6146C37.4018 79.4276 37.3486 79.246 37.4508 79.196C37.0376 78.7742 37.516 79.7102 37.1029 79.2873L37.0887 79.2558C37.1279 79.4961 36.8039 79.2645 36.8072 79.458Z" fill="#DAD8DA"/>
<path d="M37.4346 79.6152L37.4377 79.631C37.4472 79.6436 37.444 79.6341 37.4346 79.6152Z" fill="#DAD8DA"/>
<path d="M33.271 81.5781L33.3223 81.6567C33.3081 81.6251 33.2928 81.5945 33.271 81.5781Z" fill="#DAD8DA"/>
<path d="M35.0802 81.7202C35.0802 81.7202 35.0727 81.717 35.0684 81.7148C35.1362 81.8236 35.1211 81.7956 35.0802 81.7202Z" fill="#DAD8DA"/>
<path d="M29.4921 82.9604L29.5903 82.8633C29.4888 82.9386 29.4713 82.9615 29.4921 82.9604Z" fill="#DAD8DA"/>
<path d="M27.5102 83.0586L27.4131 83.1273C27.4709 83.0935 27.4993 83.0728 27.5102 83.0586Z" fill="#DAD8DA"/>
<path d="M26.9798 82.6855C26.9959 82.6553 27.0056 82.6294 26.9992 82.6133C26.9507 82.6585 26.9496 82.6844 26.9798 82.6855Z" fill="#DAD8DA"/>
<path d="M28.6068 81.3418C28.5863 81.3483 28.5702 81.3526 28.5562 81.3536C28.5702 81.3526 28.5863 81.3504 28.6068 81.3418Z" fill="#DAD8DA"/>
<path d="M27.8247 83.9316L27.5781 84.1226C27.6621 84.0669 27.744 83.9982 27.8247 83.9316Z" fill="#DAD8DA"/>
<path d="M26.693 82.7006C26.7377 82.6602 26.7584 82.634 26.7682 82.6133C26.7213 82.6515 26.6875 82.6864 26.693 82.7006Z" fill="#DAD8DA"/>
<path d="M36.7217 79.5453C36.7335 79.5323 36.7443 79.5162 36.7443 79.4752C36.7131 79.4699 36.7109 79.4989 36.7217 79.5453Z" fill="#DAD8DA"/>
<path d="M30.8062 86.2539C30.8062 86.2943 30.8094 86.3401 30.816 86.3936C30.8302 86.3499 30.8214 86.303 30.8062 86.2539Z" fill="#DAD8DA"/>
<path d="M28.5603 85.4648H28.5473C28.5398 85.4767 28.5312 85.4918 28.5215 85.5133L28.5603 85.4648Z" fill="#DAD8DA"/>
<path d="M29.1261 86.2305C29.1142 86.2499 29.1024 86.2703 29.0884 86.294C29.1067 86.2703 29.1175 86.2499 29.1261 86.2305Z" fill="#DAD8DA"/>
<path d="M27.8913 85.041C27.8651 85.0497 27.8335 85.0617 27.792 85.0825L27.8913 85.041Z" fill="#DAD8DA"/>
<path d="M27.9289 84.5148C27.8473 84.5909 27.7506 84.6311 27.6527 84.6713C27.5864 84.8398 27.9256 84.6572 27.7625 84.8953L27.8604 84.7692C28.0865 84.7039 28.1985 84.7855 27.9865 85.0007L27.8919 85.0399C28.1365 84.9627 27.8984 85.4312 28.0898 85.3421C28.1659 85.2127 28.2539 85.2051 28.3116 85.0638C28.4311 85.0899 28.5442 85.1084 28.6529 85.1192L28.3648 85.4399C28.4279 85.4508 28.4888 85.4595 28.5486 85.4649C28.6388 85.2997 28.5757 85.7454 28.8301 85.4149C28.779 85.6117 28.6116 85.6585 28.4855 85.7607C28.6127 85.7346 28.5072 85.8987 28.7018 85.7574C28.6431 85.8889 28.5877 86.0227 28.5333 86.1607C28.6323 86.1531 28.7279 86.139 28.8182 86.1183C28.7932 86.1423 28.7866 86.1803 28.7616 86.2042C28.8769 86.0977 28.8877 86.1966 28.9193 86.276C28.9497 86.3532 29.0008 86.4119 29.1584 86.1684C29.1454 86.1847 29.1389 86.2053 29.1269 86.2303C29.2954 85.965 29.2878 86.3292 29.3009 86.4619C29.39 86.4673 29.4596 86.0662 29.5227 85.8824C29.5759 86.0477 29.5966 86.1107 29.6335 86.0792C29.6694 86.0455 29.7281 85.927 29.8358 85.6987C29.8042 86.0651 29.7412 86.3042 29.6738 86.5043C29.6085 86.7087 29.54 86.8772 29.5574 87.1925C29.5759 87.1229 29.5966 87.0631 29.6205 87.012C29.7086 86.7641 29.8184 86.5402 29.9162 86.3858C29.9967 86.5217 30.1739 86.5423 30.3108 86.8293L30.2934 86.4738C30.3489 86.3651 30.4 86.2597 30.4478 86.1564C30.4304 86.3488 30.4065 86.5445 30.3772 86.7445C30.4043 86.5989 30.4804 86.3097 30.5141 86.1042C30.5783 85.8966 30.6207 86.0672 30.6653 86.2064C30.7066 86.3477 30.749 86.4575 30.7729 86.1596C30.7849 86.1912 30.7968 86.2227 30.8066 86.2531C30.8012 85.9727 30.9327 85.9814 31.0338 85.802C31.0621 85.94 31.0871 86.0792 31.111 86.2194L30.9925 86.2042C31.0697 86.3782 31.1088 86.3303 31.1338 86.2379C31.1599 86.1444 31.1719 86.0085 31.2197 85.9879C31.261 85.7965 31.0925 85.5324 31.0871 85.3965C31.1208 85.3921 31.1099 85.2617 31.1795 85.3464C31.2991 85.4052 31.398 85.7454 31.4404 85.9161C31.3317 85.5095 31.3752 85.54 31.4263 85.3073C31.5339 85.4584 31.5687 85.5334 31.5687 85.5791C31.5741 85.515 31.5556 85.428 31.4763 85.2801C31.5328 85.3301 31.5904 85.3791 31.6491 85.4269C31.9372 85.6117 31.3328 84.7768 31.5252 84.7866C31.6133 84.9768 31.6013 84.6713 31.7829 84.8431C31.7774 84.9235 32.1318 85.2834 32.2416 85.49C32.421 85.5324 32.0144 85.0942 32.0416 84.9649L32.2906 85.3758C32.2449 85.1518 32.159 85.154 32.1492 84.9768C32.2079 85.104 32.258 85.0551 32.3025 85.2138C32.4308 85.1779 32.3797 85.1638 32.5015 85.1442L32.2395 84.7659C32.2384 84.7018 32.3688 84.8594 32.4276 84.9214C32.4199 84.9377 32.3917 84.9388 32.4276 84.9855C32.695 85.2834 32.3525 84.7626 32.6069 85.029C32.5124 84.9181 32.3819 84.7616 32.4026 84.7126C32.5558 84.9496 32.6124 84.8833 32.6841 84.9779C32.5471 84.8377 32.7102 84.8485 32.5363 84.5963C32.7026 84.7365 32.6537 84.7866 32.7407 84.9127C32.5645 84.5963 32.8592 84.7637 32.7711 84.5735C32.7885 84.5952 32.8015 84.6115 32.8124 84.6257C32.7298 84.4158 32.7722 84.318 32.6765 83.9962L32.8015 84.2332C32.9592 84.2604 32.5308 83.7429 32.608 83.6918C32.8124 84.0082 32.7135 83.5766 32.9255 83.9408C32.8439 83.7342 32.8352 83.6211 32.6743 83.3363C32.8407 83.4765 32.895 83.8125 33.0168 83.857L32.9646 83.6505L33.0951 83.807C33.0081 83.6809 33.057 83.6309 32.9842 83.5363C33.1375 83.7277 33.2636 83.8472 33.369 83.9995C33.3658 83.9103 33.5593 84.0582 33.4669 83.8603L33.5397 83.9549C33.3125 83.5592 33.6082 83.7918 33.3527 83.3972L33.5256 83.5842C33.5604 83.5026 33.2701 83.1254 33.2321 83.0134C33.2462 82.9808 33.2451 82.9166 33.2951 82.9308C33.393 83.2341 33.5484 83.1971 33.6647 83.3221C33.7006 83.3048 33.7702 83.2069 33.6604 83.0014C33.7626 83.2232 33.9007 83.3645 33.8452 83.4298C34.1496 83.7744 33.8854 83.2678 33.9996 83.2645L34.1235 83.4385C34.1485 83.2439 33.9376 82.9449 33.768 82.6111C33.9355 82.8155 33.9648 82.8786 34.0898 83.1178C34.254 83.1928 34.2649 82.9667 34.3649 82.9319C34.5008 83.0656 34.5475 83.1656 34.5682 83.2515C34.5334 83.0264 34.7834 83.1515 34.5617 82.7329C34.6497 82.8992 34.6671 82.8068 34.7508 82.8568C34.6943 82.7786 34.628 82.6731 34.6389 82.6818C34.5791 82.4905 34.5899 82.2654 34.7486 82.3567L34.8074 82.4839C34.9922 82.4459 34.5823 81.7501 34.9346 81.9165C35.0204 81.9773 35.1313 82.2491 35.1803 82.1991C35.1063 82.0404 34.8878 81.7566 35.0172 81.786L35.1922 82.0382L35.0596 81.7523C34.8856 81.5642 34.8595 81.6936 34.7486 81.424C34.9791 81.6099 34.6378 81.1533 34.9117 81.3707C34.9117 81.4087 35.027 81.6164 35.0857 81.7251C35.4597 81.9023 35.1368 81.3185 35.526 81.5131C35.4651 81.2576 35.5423 81.1424 35.4673 80.9195C35.6423 81.1717 35.8021 81.3913 35.9054 81.6142C35.9978 81.5957 35.6249 81.0108 35.9369 81.3403C35.7249 80.9761 35.9739 80.9847 35.6466 80.4955C35.7195 80.5901 35.7238 80.4444 35.8434 80.764C35.8249 80.539 36.2685 81.0891 36.3109 81.0554C36.325 81.0239 36.0641 80.7727 36.1141 80.7238C36.1359 80.739 36.1718 80.7858 36.1935 80.801L36.1348 80.6738C36.2359 80.7673 36.2805 80.9271 36.3685 81.0532C36.5196 81.0978 36.2989 80.6847 36.3685 80.5868L36.4131 80.6814L36.5196 80.6303L36.5338 80.6619L36.4881 80.439L36.5751 80.564C36.5675 80.5162 36.5164 80.4368 36.5294 80.4042L36.6316 80.5618C36.4849 80.3085 36.4827 80.1161 36.5251 80.0824L36.5827 80.1444L36.4631 79.7617C36.636 79.8856 36.6555 80.1748 36.6805 79.9813L36.8773 80.3129C36.8675 80.1357 36.9991 80.2933 36.9752 80.1498C36.8371 80.0096 36.8164 80.0574 36.7436 79.8998C37.0621 80.2118 36.7751 79.7378 36.7284 79.5508C36.7034 79.579 36.6816 79.5899 36.7914 79.7856C36.7556 79.803 36.661 79.628 36.6316 79.628L36.7132 79.8356L36.5468 79.6312L36.5936 79.8552C36.4185 79.603 36.5012 79.8737 36.3403 79.5888C36.3631 79.7334 36.2044 79.5769 36.337 79.8628C36.1924 79.7378 36.262 79.6399 36.2055 79.6421C36.1391 79.9976 35.8913 80.1183 35.6075 80.1911L35.5477 80.0639C35.6075 80.1911 35.6445 80.3031 35.689 80.3988C35.5075 80.227 35.1781 80.0759 35.3977 80.4879C35.3759 80.4727 35.3466 80.4086 35.3314 80.377C35.2901 80.4749 34.9672 80.3074 34.89 80.4216C35.1324 80.8499 34.553 80.2879 34.9041 80.8565L34.8454 80.7293C34.9889 80.8532 35.065 81.1402 35.1455 81.2837C34.8628 80.9543 34.9487 81.0163 34.6802 80.7184L34.8106 80.8108L34.5921 80.5281C34.9976 81.3696 34.0985 80.3672 34.4062 80.9684C34.391 80.9369 34.3551 80.8902 34.341 80.8586C34.167 80.7347 34.3942 81.1304 34.4247 81.2587C34.3149 81.1174 34.2779 81.0054 34.2192 80.8782C34.0409 80.8347 34.1627 81.3468 33.8887 81.1935C33.992 81.4164 34.092 81.4446 34.1594 81.6207C34.0877 81.5903 33.9507 81.45 33.9191 81.3218C33.5658 81.0271 33.7843 81.7773 33.4027 81.5479C33.4854 81.8186 33.5995 81.8795 33.5897 82.1056C33.5158 81.9469 33.219 81.6501 33.2755 81.5838L33.1733 81.4261C33.0385 81.4794 32.8472 81.5327 33.0962 82.0089C32.8635 81.6936 33.0309 81.9621 32.8646 81.8229C32.8722 81.8708 32.9005 81.8697 32.9233 81.886C33.0777 82.1872 32.8526 81.9208 32.8537 81.9849L32.8244 81.9219L32.8853 82.1785C32.8418 82.1469 32.7776 82.1013 32.7048 82.0056L32.8646 82.2263C32.8222 82.26 32.6396 81.9588 32.6265 82.0567L32.757 82.2132C32.6483 82.1361 32.7591 82.4068 32.5776 82.1698C32.5417 82.123 32.5635 82.1382 32.57 82.1219C32.2732 81.8251 32.5091 82.3328 32.3297 82.2252L32.6059 82.5709C32.6222 82.7318 32.5124 82.5263 32.4243 82.3991C32.383 82.4328 32.2884 82.323 32.2025 82.3252C32.2395 82.4372 32.283 82.4676 32.3493 82.5785L32.2275 82.534L32.1242 82.3111C32.4102 82.8982 31.8546 82.4165 32.1405 82.9384C32.0329 82.8612 32.0155 82.7014 31.9514 82.6546C31.6774 82.5013 31.959 83.1689 31.6785 82.9688C31.3491 82.8177 31.361 83.1873 31.0751 83.1319L31.148 83.2265L30.9773 83.2319C31.1023 83.47 30.9512 83.4265 31.0849 83.7124C31.0338 83.6331 30.9392 83.5233 30.9099 83.4602C30.8827 83.5255 30.9066 83.67 30.7827 83.5602L30.7392 83.4657C30.5892 83.4852 30.4337 83.5874 30.5087 83.8103C30.4957 83.8375 30.4663 83.8005 30.4272 83.7451C30.3869 83.6885 30.3359 83.6168 30.2945 83.5581C30.2858 83.5494 30.3511 83.6505 30.4261 83.8299C30.4 83.7875 30.3739 83.744 30.325 83.6439C30.3663 83.7331 30.4054 83.8244 30.4435 83.9157C30.4196 83.8831 30.3435 83.694 30.3108 83.6255C30.375 83.7929 30.3609 83.8146 30.3435 83.7885C30.3239 83.7635 30.3021 83.6918 30.3 83.7048L30.3326 83.8592C30.3467 83.9886 30.2989 83.7722 30.2793 83.607C30.2619 83.5135 30.2815 83.6396 30.2793 83.7962C30.2793 83.9505 30.2554 84.1375 30.2271 84.1114C30.2434 83.7744 30.238 83.8266 30.225 83.8744C30.213 83.9212 30.1956 83.9625 30.2576 83.5559C30.2456 83.6298 30.2413 83.6385 30.2413 83.6385C30.2391 83.6331 30.2478 83.6081 30.175 83.9016C30.1934 83.8212 30.2 83.7864 30.2043 83.7744C30.2695 83.4765 30.2195 83.7037 30.1467 83.8614L30.2184 83.6472C30.0586 84.1027 30.0815 83.9353 29.8836 84.3321C29.9227 84.2375 29.9695 84.1658 30.0043 84.0951C30.088 83.8907 30.0651 83.9364 30.0206 84.0114C29.9771 84.0875 29.9097 84.1941 29.9238 84.1408C29.9749 84.0484 30.0314 83.9342 30.0706 83.869C30.1706 83.6429 30.1315 83.7135 30.0521 83.7548C29.976 83.7994 29.8684 83.8277 29.9532 83.6961C29.9227 83.6233 29.6292 83.944 29.5977 83.8429C29.7444 83.7114 29.9532 83.6668 29.9869 83.5678C29.7607 83.6613 29.7934 83.62 29.7781 83.5548C29.8912 83.4939 29.9564 83.4385 30.0543 83.4265C30.1684 83.308 29.7151 83.4678 29.9434 83.2319C29.8466 83.3004 29.7814 83.3276 29.7173 83.3537C29.3781 83.4515 29.8662 82.9656 29.7042 83.0612C29.7042 83.0612 29.6401 83.0601 29.6238 83.1091C29.6085 83.0732 29.6238 82.9949 29.7879 82.8992C29.6901 82.9395 29.5444 83.0145 29.5129 82.9993L29.7075 82.8905C29.6575 82.9025 29.5292 82.9623 29.4976 82.9634L29.3998 83.0612C29.5292 82.9221 29.1095 83.096 29.4661 82.8634L29.4824 82.871L29.5966 82.6959C29.4346 82.7633 29.2726 82.8297 29.2911 82.7514C29.6477 82.4905 29.2922 82.5807 29.2922 82.4959L29.4226 82.4144C29.2128 82.4861 29.215 82.3154 29.1661 82.3785C29.1345 82.335 29.1845 82.2154 29.3139 82.1611C29.2172 82.173 29.1693 82.0926 28.9432 82.2154L29.2041 81.9382C28.7181 82.1958 29.2715 81.6827 28.7856 81.998C28.8345 81.9067 28.9475 81.8458 29.0139 81.761C28.7388 81.861 28.7399 81.7751 28.7399 81.6903L28.7888 81.6555C28.7888 81.5707 28.4996 81.662 28.4192 81.5957L28.7769 81.3348C28.6964 81.3261 28.404 81.5033 28.454 81.4109C28.504 81.3642 28.5301 81.3598 28.5573 81.3576C28.4572 81.3653 28.5148 81.2489 28.5855 81.1587C28.2789 81.2718 28.3442 81.1587 28.0213 81.2935C28.3137 81.0304 28.2137 81.2707 28.4909 81.0282C28.6051 80.8249 28.3637 80.8543 28.1387 80.8619C28.2028 80.8075 28.2681 80.7804 28.3485 80.7325C28.3485 80.7325 27.3309 81.1195 27.0048 81.3881C26.746 81.5229 26.5851 81.5903 26.4384 81.8077C26.6003 81.7414 26.8254 81.7044 26.5656 81.8969L26.8243 81.7327C27.0167 81.7664 26.3057 82.0893 26.4003 82.2198L26.4655 82.136C26.4971 82.1513 26.6754 82.0632 26.6101 82.1469C26.5449 82.2024 26.4971 82.2078 26.4318 82.235L26.8515 82.1176C26.7058 82.2209 26.6243 82.2687 26.4949 82.322C26.5743 82.4165 26.9493 81.9926 26.9308 82.1839C26.833 82.2806 26.7689 82.2796 26.6721 82.3198C26.4927 82.522 26.7189 82.4285 26.8961 82.397C26.6688 82.5481 26.6699 82.4916 26.5558 82.6372C26.6688 82.5481 26.8645 82.41 26.9124 82.4339C26.6699 82.5677 26.8091 82.5437 26.7754 82.6198C26.8504 82.5601 26.9602 82.4916 27.0091 82.4796C27.057 82.4742 26.9765 82.5503 27.008 82.5655L27.2037 82.3709C27.4625 82.2915 27.1526 82.5481 27.0874 82.6601C27.0428 82.684 27.008 82.6949 26.9885 82.6938C26.9287 82.8068 26.7797 82.9808 27.02 82.9145L26.9874 82.9275C27.294 82.9003 27.3451 82.6372 27.6506 82.6383C27.6332 82.7166 26.8884 83.1091 27.2276 83.0406C27.3907 82.8601 27.7462 82.7981 27.8734 82.8014L27.3885 83.0308C27.4005 83.058 27.5516 83.0199 27.5157 83.0634L27.6136 82.9949C27.9865 82.7416 27.6136 83.1091 27.8713 83.0025C27.3201 83.2874 27.4179 83.2189 26.8993 83.5461C27.207 83.4048 27.4984 83.2841 27.4973 83.3982L27.0602 83.5939C27.0428 83.757 27.7049 83.4972 28.093 83.3646C27.7854 83.5341 27.7049 83.6385 27.4288 83.7668L27.556 83.8277L27.2168 84.0103C27.5734 83.8342 27.3766 84.0288 27.7984 83.7407C27.7343 83.7679 27.6853 83.8016 27.6853 83.7733C27.8158 83.6907 28.0909 83.5342 28.1061 83.5994C28.0245 83.7037 27.9278 83.6874 27.8136 83.7766C28.0082 83.6961 27.7321 83.882 27.8778 83.8353L28.0398 83.6831C28.2996 83.5472 28.0876 83.7342 28.2333 83.6874C28.1006 83.7157 27.968 83.8222 27.8299 83.9364L27.8604 83.9125C27.8919 83.9277 28.0865 83.8472 27.956 83.9581L27.6005 84.1625L27.8756 84.0342C27.843 84.0766 27.7288 84.1658 27.6484 84.1854C27.5168 84.4387 28.3779 83.6983 28.1659 84.056C28.0354 84.1386 27.9386 84.1788 27.9876 84.0875C27.7767 84.2169 27.6636 84.3071 27.6136 84.3984C27.5984 84.4093 27.5875 84.4158 27.5755 84.4234C27.6223 84.5061 27.6723 84.6202 27.9343 84.5202L27.9289 84.5148Z" fill="#DAD8DA"/>
<path d="M27.5695 84.4179C27.5444 84.3742 27.5193 84.3393 27.4626 84.3524C27.4015 84.4048 27.3557 84.5608 27.5695 84.4179Z" fill="#DAD8DA"/>
<path d="M34.5635 83.248C34.5656 83.261 34.5678 83.2761 34.5721 83.2911L34.5635 83.248Z" fill="#DAD8DA"/>
<path d="M34.8159 82.9166C34.7876 82.8838 34.7646 82.8664 34.7461 82.8555C34.793 82.9209 34.8334 82.9679 34.8159 82.9166Z" fill="#DAD8DA"/>
<path d="M33.5262 84.3059C33.4773 84.1787 33.4241 84.0831 33.3643 83.9961C33.3653 84.0352 33.4056 84.1211 33.5262 84.3059Z" fill="#DAD8DA"/>
<path d="M32.8096 84.625C32.8171 84.6433 32.8236 84.6616 32.8333 84.6821C32.829 84.6573 32.8214 84.6412 32.8096 84.625Z" fill="#DAD8DA"/>
<path d="M31.4991 85.8838C31.485 85.7294 31.5546 85.6903 31.5665 85.5859C31.5578 85.6816 31.4089 85.6262 31.4991 85.8838Z" fill="#DAD8DA"/>
<path d="M34.9482 82.2695L35.0366 82.4605L34.9853 82.3164L34.9482 82.2695Z" fill="#DAD8DA"/>
<path d="M34.7252 82.5962C34.6815 82.5646 34.7055 82.7097 34.7852 82.7872C34.7404 82.6912 34.7339 82.6432 34.7252 82.5962Z" fill="#DAD8DA"/>
<path d="M33.4526 83.2793L33.5694 83.4691L33.4963 83.3109L33.4526 83.2793Z" fill="#DAD8DA"/>
<path d="M91.3369 78.4484L95.6073 35.8633" stroke="#B0AEAF" stroke-miterlimit="10"/>
<path d="M79.36 34.021C87.7844 35.0875 96.2045 36.1877 104.627 37.2694C106.926 37.5652 109.226 37.8587 111.525 38.15C111.733 38.1761 111.73 37.85 111.525 37.8239C103.1 36.7574 94.6803 35.6572 86.2581 34.5754C83.9587 34.2797 81.6594 33.9862 79.36 33.6948C79.1524 33.6688 79.1545 33.9949 79.36 34.021Z" fill="#B0AEAF" stroke="#B0AEAF" stroke-width="0.5"/>
<path d="M114.085 18.5757C105.57 17.1265 97.0153 15.8143 88.3875 15.2674C85.9001 15.1098 83.4094 15.0185 80.9176 15C80.7078 14.9989 80.7078 15.3251 80.9176 15.3262C89.5943 15.3903 98.2275 16.3861 106.793 17.7125C109.198 18.0843 111.599 18.4822 113.998 18.891C114.203 18.9258 114.291 18.6116 114.085 18.5768V18.5757Z" fill="#B0AEAF" stroke="#B0AEAF" stroke-width="0.5"/>
<path d="M80.7605 15.1198C79.7429 21.3025 79.2309 27.5928 79.2124 33.8592C79.2124 34.069 79.5375 34.069 79.5386 33.8592C79.557 27.6232 80.0626 21.3612 81.0747 15.2067C81.1084 15.0013 80.7942 14.9132 80.7605 15.1198Z" fill="#B0AEAF" stroke="#B0AEAF" stroke-width="0.5"/>
<path d="M82.9824 28.5793C83.0565 27.8849 83.1431 27.1773 83.2422 26.4563C83.3487 25.7361 83.4372 25.0104 83.5078 24.279C83.5865 23.5412 83.6351 22.8076 83.6537 22.078C83.6722 21.3484 83.6378 20.6278 83.5506 19.9163C83.5545 19.8801 83.5737 19.8383 83.6085 19.7908C83.644 19.736 83.686 19.6893 83.7346 19.6506C83.7833 19.6119 83.8344 19.5844 83.888 19.5682C83.9498 19.5455 84.0088 19.5482 84.0651 19.5761C84.1566 19.6224 84.2258 19.703 84.2729 19.8177C84.3281 19.926 84.3638 20.0432 84.38 20.1693C84.4035 20.2962 84.4128 20.4179 84.4078 20.5344C84.4109 20.6445 84.4097 20.7248 84.4043 20.7754L88.7492 20.1855C88.8136 20.207 88.8607 20.2523 88.8904 20.3213C88.9282 20.3838 88.9392 20.4545 88.9234 20.5333C88.9157 20.6056 88.8823 20.6752 88.8232 20.7421C88.7715 20.8097 88.6965 20.8529 88.5981 20.8717L84.3111 21.5446C84.261 22.0148 84.2222 22.4825 84.1948 22.9477C84.1748 23.4138 84.1576 23.8875 84.1433 24.3688L87.3127 23.6424C87.3127 23.6424 87.337 23.6231 87.3856 23.5844C87.4342 23.5457 87.4894 23.515 87.5511 23.4923C87.6202 23.4704 87.6873 23.4666 87.7526 23.4809C87.8251 23.4959 87.889 23.5576 87.9441 23.6659C87.9287 23.8106 87.8265 23.935 87.6374 24.0392C87.4491 24.1362 87.2176 24.2212 86.9429 24.2943C86.6755 24.3682 86.3828 24.4357 86.0649 24.4969C85.755 24.5517 85.4631 24.612 85.1892 24.6778C84.9226 24.7445 84.6959 24.8191 84.5091 24.9016C84.3231 24.9768 84.2244 25.0687 84.2128 25.1772L83.8314 28.0225C83.9345 28.0993 84.0898 28.1378 84.2973 28.138C84.513 28.1318 84.753 28.1062 85.0173 28.0612C85.2816 28.0162 85.5622 27.9584 85.8589 27.8876C86.1564 27.8096 86.4421 27.7377 86.716 27.6718C86.99 27.6059 87.2408 27.5485 87.4684 27.4997C87.7034 27.4516 87.8909 27.4314 88.031 27.439C88.0962 27.4532 88.1522 27.4848 88.1989 27.5337C88.2463 27.5753 88.2783 27.6226 88.2949 27.6756C88.3115 27.7286 88.3057 27.7828 88.2776 27.8384C88.2575 27.8874 88.2052 27.9258 88.1207 27.9533C87.8217 28.0458 87.4625 28.1465 87.0431 28.2553C86.6236 28.3642 86.1899 28.4679 85.742 28.5664C85.3021 28.6585 84.8748 28.7373 84.46 28.8028C84.046 28.861 83.6985 28.8861 83.4176 28.8781C83.3165 28.8527 83.2345 28.822 83.1716 28.7861C83.1169 28.7436 83.0538 28.6747 82.9824 28.5793Z" fill="#918D90"/>
<path d="M88.8176 29.3444C88.8184 29.1982 88.8284 28.9652 88.8477 28.6454C88.8751 28.3191 88.9034 27.949 88.9327 27.5352C88.9702 27.1149 89.0103 26.6692 89.0531 26.1983C89.0959 25.7274 89.1295 25.2737 89.1538 24.8374C89.1862 24.3946 89.2041 23.9832 89.2076 23.6032C89.2184 23.2239 89.2138 22.9198 89.1937 22.6909C89.213 22.5101 89.2788 22.4147 89.3911 22.4047C89.5114 22.3883 89.6434 22.4024 89.7869 22.4469C89.795 22.9965 89.7866 23.493 89.7615 23.9366C89.7437 24.3809 89.72 24.7771 89.6903 25.1251C89.6687 25.4666 89.6481 25.7643 89.6284 26.0183C89.6168 26.2658 89.6213 26.4674 89.6417 26.6232C89.8015 25.9599 89.9541 25.3983 90.0995 24.9383C90.245 24.4783 90.3848 24.1055 90.5191 23.8199C90.6615 23.5278 90.8023 23.3197 90.9416 23.1956C91.0817 23.0642 91.2262 22.9955 91.3751 22.9895C91.5086 22.9891 91.622 23.1072 91.7154 23.344C91.8096 23.5735 91.8862 23.8633 91.9452 24.2134C92.0116 24.5643 92.0602 24.9426 92.0911 25.3482C92.1301 25.7474 92.1538 26.1157 92.1623 26.4532C92.4895 25.7492 92.7565 25.1924 92.9633 24.7829C93.1774 24.3741 93.3584 24.0679 93.5062 23.8642C93.6547 23.6533 93.7834 23.5243 93.8922 23.4774C94.0083 23.4313 94.132 23.4189 94.2632 23.4402C94.4384 23.4662 94.5696 23.557 94.6568 23.7126C94.7521 23.8618 94.8163 24.0588 94.8495 24.3038C94.8835 24.5415 94.8948 24.817 94.8837 25.1304C94.8806 25.4373 94.8682 25.7615 94.8466 26.1031C94.8324 26.4454 94.821 26.7953 94.8125 27.1528C94.8121 27.5039 94.828 27.8421 94.86 28.1674C94.892 28.4927 94.952 28.7991 95.04 29.0864C95.1287 29.3666 95.2628 29.604 95.4423 29.7987C95.3624 29.9219 95.2735 30.0258 95.1754 30.1104C95.0782 30.1878 94.985 30.1925 94.8959 30.1245C94.698 29.9644 94.5504 29.7146 94.4531 29.375C94.364 29.029 94.3015 28.6419 94.2656 28.2138C94.2297 27.7856 94.2173 27.3454 94.2285 26.893C94.2405 26.4334 94.2518 26.014 94.2626 25.6348C94.2734 25.2555 94.2736 24.941 94.2632 24.6911C94.2601 24.4421 94.2296 24.3108 94.1718 24.2973C93.9622 24.2457 93.7072 24.5513 93.4066 25.2143C93.1134 25.8779 92.715 26.8669 92.2115 28.1812C92.1648 28.2713 92.1135 28.3353 92.0576 28.3733C92.0024 28.404 91.9491 28.4166 91.8978 28.4111C91.8465 28.4056 91.7967 28.3857 91.7485 28.3513C91.701 28.3096 91.6617 28.2615 91.6304 28.207C91.5864 27.6463 91.5548 27.1089 91.5355 26.5948C91.5235 26.0814 91.509 25.6263 91.492 25.2295C91.4751 24.8326 91.4463 24.5113 91.4058 24.2656C91.3726 24.0207 91.3201 23.887 91.2484 23.8648C91.1839 23.8433 91.1102 23.9085 91.0273 24.0606C90.9524 24.2063 90.871 24.4134 90.783 24.682C90.6958 24.9434 90.5992 25.2586 90.4931 25.6277C90.3951 25.9903 90.2903 26.3815 90.1788 26.8012C90.0673 27.2209 89.9506 27.6547 89.8287 28.1026C89.7075 28.5432 89.5795 28.9795 89.4444 29.4113C89.4089 29.466 89.3603 29.5047 89.2986 29.5274C89.2361 29.5573 89.1718 29.5688 89.1058 29.5617C89.0472 29.5555 88.9901 29.5347 88.9345 29.4996C88.8789 29.4644 88.84 29.4127 88.8176 29.3444Z" fill="#918D90"/>
<path d="M95.3046 33.3832C95.4662 32.4934 95.5933 31.7534 95.6859 31.1634C95.7785 30.5735 95.8509 30.0691 95.903 29.6503C95.9631 29.2252 96.0069 28.8494 96.0343 28.5232C96.0617 28.1969 96.0874 27.8521 96.1113 27.4889C96.136 27.1185 96.1624 26.697 96.1906 26.2245C96.2268 25.7455 96.2762 25.1436 96.3387 24.4187C96.3618 24.3407 96.3985 24.2751 96.4487 24.222C96.4996 24.1616 96.5519 24.1233 96.6055 24.107C96.6672 24.0843 96.7296 24.091 96.7924 24.127C96.8553 24.1629 96.9144 24.2351 96.9696 24.3434L96.7861 25.7503C97.0693 25.4587 97.3788 25.199 97.7144 24.9715C98.0575 24.7447 98.3955 24.565 98.7285 24.4322C99.0695 24.2931 99.3938 24.2069 99.7014 24.1739C100.01 24.1336 100.271 24.1542 100.484 24.2355C100.706 24.3176 100.864 24.4662 100.96 24.6812C101.063 24.8898 101.078 25.173 101.002 25.5307C100.939 25.8459 100.804 26.1789 100.596 26.5298C100.388 26.8735 100.141 27.2128 99.8531 27.5479C99.5733 27.8765 99.2691 28.1915 98.9403 28.493C98.6116 28.7944 98.2944 29.0569 97.9889 29.2803C97.6833 29.5037 97.401 29.6821 97.1421 29.8155C96.8913 29.9423 96.6963 29.9983 96.557 29.9835C96.5388 30.084 96.5128 30.2238 96.4789 30.4031C96.4441 30.5896 96.4071 30.7978 96.3677 31.0277C96.3276 31.2648 96.2831 31.5088 96.2341 31.7596C96.1924 32.0112 96.1519 32.2519 96.1125 32.4818C96.0732 32.7117 96.0361 32.9199 96.0014 33.1064C95.9667 33.2929 95.9443 33.4332 95.9343 33.5272C95.8938 33.5595 95.8463 33.5873 95.7919 33.6108C95.7375 33.6343 95.6806 33.6465 95.6212 33.6474C95.5617 33.6484 95.5046 33.6277 95.4498 33.5853C95.3943 33.5501 95.3459 33.4827 95.3046 33.3832ZM96.568 29.3592C96.8199 29.2909 97.1296 29.1338 97.4969 28.8877C97.865 28.6343 98.2352 28.3263 98.6075 27.9637C98.988 27.5946 99.3393 27.1858 99.6615 26.7374C99.9837 26.2889 100.225 25.8355 100.385 25.3771C100.366 25.1409 100.283 24.9785 100.137 24.8897C99.9904 24.801 99.8086 24.7669 99.5914 24.7877C99.3823 24.8019 99.1454 24.8681 98.8807 24.9862C98.6168 25.097 98.3571 25.2376 98.1017 25.4078C97.8543 25.5717 97.6193 25.7587 97.3967 25.9691C97.1741 26.1794 96.9958 26.3908 96.8619 26.6033L96.568 29.3592Z" fill="#918D90"/>
<path d="M102.663 25.7079L101.615 25.9363C101.537 25.906 101.475 25.8592 101.43 25.7958C101.378 25.7317 101.344 25.6659 101.329 25.5985C101.314 25.531 101.317 25.4692 101.338 25.4129C101.351 25.3558 101.385 25.3155 101.439 25.292L102.743 24.9592L103.048 21.8864C103.08 21.7947 103.135 21.7311 103.213 21.6955C103.291 21.6599 103.367 21.6497 103.439 21.6647C103.52 21.6733 103.59 21.7065 103.651 21.7641C103.712 21.8146 103.75 21.8771 103.764 21.9518C103.726 22.1745 103.689 22.412 103.655 22.6644C103.621 22.9095 103.587 23.1583 103.553 23.4107C103.527 23.6566 103.505 23.8993 103.487 24.1388C103.469 24.371 103.461 24.586 103.462 24.7836L105.24 24.2819C105.345 24.2639 105.425 24.2834 105.478 24.3402C105.532 24.3899 105.562 24.4553 105.568 24.5364C105.583 24.6111 105.571 24.683 105.534 24.7522C105.497 24.8214 105.441 24.8666 105.364 24.8877L103.382 25.5322C103.375 25.6046 103.36 25.7785 103.338 26.0542C103.317 26.3226 103.29 26.6416 103.258 27.0113C103.226 27.381 103.191 27.776 103.154 28.1963C103.116 28.6166 103.078 29.0112 103.039 29.3801C103.007 29.7497 102.976 30.072 102.947 30.3469C102.925 30.6153 102.911 30.7856 102.903 30.858C102.863 31.0951 102.781 31.207 102.656 31.1937C102.531 31.1804 102.402 31.1081 102.268 30.9767L102.663 25.7079Z" fill="#918D90"/>
<path d="M106.654 31.3568L104.806 25.6401C104.756 25.5471 104.751 25.4587 104.789 25.3751C104.829 25.2842 104.888 25.2173 104.966 25.1745C105.045 25.1317 105.131 25.1226 105.225 25.1472C105.327 25.1654 105.413 25.233 105.482 25.3501L106.996 30.3399L108.528 25.0496C108.574 25.0326 108.627 25.02 108.687 25.0118C108.755 25.0044 108.818 25.0074 108.876 25.0209C108.941 25.0351 108.997 25.0631 109.045 25.1047C109.092 25.1464 109.119 25.2078 109.125 25.2889C109.057 25.5743 108.963 25.9373 108.842 26.378C108.721 26.8186 108.591 27.2729 108.452 27.7409C108.314 28.2017 108.178 28.6444 108.043 29.069C107.917 29.4871 107.819 29.8205 107.748 30.0689C107.702 30.2177 107.643 30.4199 107.572 30.6756C107.501 30.9241 107.42 31.1971 107.329 31.4946C107.245 31.7929 107.153 32.1013 107.052 32.4198C106.958 32.7463 106.865 33.0583 106.774 33.3558C106.69 33.6541 106.606 33.9231 106.521 34.1628C106.443 34.4105 106.377 34.6083 106.324 34.7563C106.301 34.8415 106.25 34.9019 106.172 34.9375C106.094 34.9731 106.011 34.9826 105.924 34.9659C105.837 34.9493 105.756 34.9114 105.68 34.8522C105.612 34.7937 105.58 34.7171 105.582 34.6223L106.654 31.3568Z" fill="#918D90"/>
<path d="M82.9824 28.5793C83.0565 27.8849 83.1431 27.1773 83.2422 26.4563C83.3487 25.7361 83.4372 25.0104 83.5078 24.279C83.5865 23.5412 83.6351 22.8076 83.6537 22.078C83.6722 21.3484 83.6378 20.6278 83.5506 19.9163C83.5545 19.8801 83.5737 19.8383 83.6085 19.7908C83.644 19.736 83.686 19.6893 83.7346 19.6506C83.7833 19.6119 83.8344 19.5844 83.888 19.5682C83.9498 19.5455 84.0088 19.5482 84.0651 19.5761C84.1566 19.6224 84.2258 19.703 84.2729 19.8177C84.3281 19.926 84.3638 20.0432 84.38 20.1693C84.4035 20.2962 84.4128 20.4179 84.4078 20.5344C84.4109 20.6445 84.4097 20.7248 84.4043 20.7754L88.7492 20.1855C88.8136 20.207 88.8607 20.2523 88.8904 20.3213C88.9282 20.3838 88.9392 20.4545 88.9234 20.5333C88.9157 20.6056 88.8823 20.6752 88.8232 20.7421C88.7715 20.8097 88.6965 20.8529 88.5981 20.8717L84.3111 21.5446C84.261 22.0148 84.2222 22.4825 84.1948 22.9477C84.1748 23.4138 84.1576 23.8875 84.1433 24.3688L87.3127 23.6424C87.3127 23.6424 87.337 23.6231 87.3856 23.5844C87.4342 23.5457 87.4894 23.515 87.5511 23.4923C87.6202 23.4704 87.6873 23.4666 87.7526 23.4809C87.8251 23.4959 87.889 23.5576 87.9441 23.6659C87.9287 23.8106 87.8265 23.935 87.6374 24.0392C87.4491 24.1362 87.2176 24.2212 86.9429 24.2943C86.6755 24.3682 86.3828 24.4357 86.0649 24.4969C85.755 24.5517 85.4631 24.612 85.1892 24.6778C84.9226 24.7445 84.6959 24.8191 84.5091 24.9016C84.3231 24.9768 84.2244 25.0687 84.2128 25.1772L83.8314 28.0225C83.9345 28.0993 84.0898 28.1378 84.2973 28.138C84.513 28.1318 84.753 28.1062 85.0173 28.0612C85.2816 28.0162 85.5622 27.9584 85.8589 27.8876C86.1564 27.8096 86.4421 27.7377 86.716 27.6718C86.99 27.6059 87.2408 27.5485 87.4684 27.4997C87.7034 27.4516 87.8909 27.4314 88.031 27.439C88.0962 27.4532 88.1522 27.4848 88.1989 27.5337C88.2463 27.5753 88.2783 27.6226 88.2949 27.6756C88.3115 27.7286 88.3057 27.7828 88.2776 27.8384C88.2575 27.8874 88.2052 27.9258 88.1207 27.9533C87.8217 28.0458 87.4625 28.1465 87.0431 28.2553C86.6236 28.3642 86.1899 28.4679 85.742 28.5664C85.3021 28.6585 84.8748 28.7373 84.46 28.8028C84.046 28.861 83.6985 28.8861 83.4176 28.8781C83.3165 28.8527 83.2345 28.822 83.1716 28.7861C83.1169 28.7436 83.0538 28.6747 82.9824 28.5793Z" stroke="#918D90" stroke-width="0.2"/>
<path d="M88.8176 29.3444C88.8184 29.1982 88.8284 28.9652 88.8477 28.6454C88.8751 28.3191 88.9034 27.949 88.9327 27.5352C88.9702 27.1149 89.0103 26.6692 89.0531 26.1983C89.0959 25.7274 89.1295 25.2737 89.1538 24.8374C89.1862 24.3946 89.2041 23.9832 89.2076 23.6032C89.2184 23.2239 89.2138 22.9198 89.1937 22.6909C89.213 22.5101 89.2788 22.4147 89.3911 22.4047C89.5114 22.3883 89.6434 22.4024 89.7869 22.4469C89.795 22.9965 89.7866 23.493 89.7615 23.9366C89.7437 24.3809 89.72 24.7771 89.6903 25.1251C89.6687 25.4666 89.6481 25.7643 89.6284 26.0183C89.6168 26.2658 89.6213 26.4674 89.6417 26.6232C89.8015 25.9599 89.9541 25.3983 90.0995 24.9383C90.245 24.4783 90.3848 24.1055 90.5191 23.8199C90.6615 23.5278 90.8023 23.3197 90.9416 23.1956C91.0817 23.0642 91.2262 22.9955 91.3751 22.9895C91.5086 22.9891 91.622 23.1072 91.7154 23.344C91.8096 23.5735 91.8862 23.8633 91.9452 24.2134C92.0116 24.5643 92.0602 24.9426 92.0911 25.3482C92.1301 25.7474 92.1538 26.1157 92.1623 26.4532C92.4895 25.7492 92.7565 25.1924 92.9633 24.7829C93.1774 24.3741 93.3584 24.0679 93.5062 23.8642C93.6547 23.6533 93.7834 23.5243 93.8922 23.4774C94.0083 23.4313 94.132 23.4189 94.2632 23.4402C94.4384 23.4662 94.5696 23.557 94.6568 23.7126C94.7521 23.8618 94.8163 24.0588 94.8495 24.3038C94.8835 24.5415 94.8948 24.817 94.8837 25.1304C94.8806 25.4373 94.8682 25.7615 94.8466 26.1031C94.8324 26.4454 94.821 26.7953 94.8125 27.1528C94.8121 27.5039 94.828 27.8421 94.86 28.1674C94.892 28.4927 94.952 28.7991 95.04 29.0864C95.1287 29.3666 95.2628 29.604 95.4423 29.7987C95.3624 29.9219 95.2735 30.0258 95.1754 30.1104C95.0782 30.1878 94.985 30.1925 94.8959 30.1245C94.698 29.9644 94.5504 29.7146 94.4531 29.375C94.364 29.029 94.3015 28.6419 94.2656 28.2138C94.2297 27.7856 94.2173 27.3454 94.2285 26.893C94.2405 26.4334 94.2518 26.014 94.2626 25.6348C94.2734 25.2555 94.2736 24.941 94.2632 24.6911C94.2601 24.4421 94.2296 24.3108 94.1718 24.2973C93.9622 24.2457 93.7072 24.5513 93.4066 25.2143C93.1134 25.8779 92.715 26.8669 92.2115 28.1812C92.1648 28.2713 92.1135 28.3353 92.0576 28.3733C92.0024 28.404 91.9491 28.4166 91.8978 28.4111C91.8465 28.4056 91.7967 28.3857 91.7485 28.3513C91.701 28.3096 91.6617 28.2615 91.6304 28.207C91.5864 27.6463 91.5548 27.1089 91.5355 26.5948C91.5235 26.0814 91.509 25.6263 91.492 25.2295C91.4751 24.8326 91.4463 24.5113 91.4058 24.2656C91.3726 24.0207 91.3201 23.887 91.2484 23.8648C91.1839 23.8433 91.1102 23.9085 91.0273 24.0606C90.9524 24.2063 90.871 24.4134 90.783 24.682C90.6958 24.9434 90.5992 25.2586 90.4931 25.6277C90.3951 25.9903 90.2903 26.3815 90.1788 26.8012C90.0673 27.2209 89.9506 27.6547 89.8287 28.1026C89.7075 28.5432 89.5795 28.9795 89.4444 29.4113C89.4089 29.466 89.3603 29.5047 89.2986 29.5274C89.2361 29.5573 89.1718 29.5688 89.1058 29.5617C89.0472 29.5555 88.9901 29.5347 88.9345 29.4996C88.8789 29.4644 88.84 29.4127 88.8176 29.3444Z" stroke="#918D90" stroke-width="0.2"/>
<path d="M95.3046 33.3832C95.4662 32.4934 95.5933 31.7534 95.6859 31.1634C95.7785 30.5735 95.8509 30.0691 95.903 29.6503C95.9631 29.2252 96.0069 28.8494 96.0343 28.5232C96.0617 28.1969 96.0874 27.8521 96.1113 27.4889C96.136 27.1185 96.1624 26.697 96.1906 26.2245C96.2268 25.7455 96.2762 25.1436 96.3387 24.4187C96.3618 24.3407 96.3985 24.2751 96.4487 24.222C96.4996 24.1616 96.5519 24.1233 96.6055 24.107C96.6672 24.0843 96.7296 24.091 96.7924 24.127C96.8553 24.1629 96.9144 24.2351 96.9696 24.3434L96.7861 25.7503C97.0693 25.4587 97.3788 25.199 97.7144 24.9715C98.0575 24.7447 98.3955 24.565 98.7285 24.4322C99.0695 24.2931 99.3938 24.2069 99.7014 24.1739C100.01 24.1336 100.271 24.1542 100.484 24.2355C100.706 24.3176 100.864 24.4662 100.96 24.6812C101.063 24.8898 101.078 25.173 101.002 25.5307C100.939 25.8459 100.804 26.1789 100.596 26.5298C100.388 26.8735 100.141 27.2128 99.8531 27.5479C99.5733 27.8765 99.2691 28.1915 98.9403 28.493C98.6116 28.7944 98.2944 29.0569 97.9889 29.2803C97.6833 29.5037 97.401 29.6821 97.1421 29.8155C96.8913 29.9423 96.6963 29.9983 96.557 29.9835C96.5388 30.084 96.5128 30.2238 96.4789 30.4031C96.4441 30.5896 96.4071 30.7978 96.3677 31.0277C96.3276 31.2648 96.2831 31.5088 96.2341 31.7596C96.1924 32.0112 96.1519 32.2519 96.1125 32.4818C96.0732 32.7117 96.0361 32.9199 96.0014 33.1064C95.9667 33.2929 95.9443 33.4332 95.9343 33.5272C95.8938 33.5595 95.8463 33.5873 95.7919 33.6108C95.7375 33.6343 95.6806 33.6465 95.6212 33.6474C95.5617 33.6484 95.5046 33.6277 95.4498 33.5853C95.3943 33.5501 95.3459 33.4827 95.3046 33.3832ZM96.568 29.3592C96.8199 29.2909 97.1296 29.1338 97.4969 28.8877C97.865 28.6343 98.2352 28.3263 98.6075 27.9637C98.988 27.5946 99.3393 27.1858 99.6615 26.7374C99.9837 26.2889 100.225 25.8355 100.385 25.3771C100.366 25.1409 100.283 24.9785 100.137 24.8897C99.9904 24.801 99.8086 24.7669 99.5914 24.7877C99.3823 24.8019 99.1454 24.8681 98.8807 24.9862C98.6168 25.097 98.3571 25.2376 98.1017 25.4078C97.8543 25.5717 97.6193 25.7587 97.3967 25.9691C97.1741 26.1794 96.9958 26.3908 96.8619 26.6033L96.568 29.3592Z" stroke="#918D90" stroke-width="0.2"/>
<path d="M102.663 25.7079L101.615 25.9363C101.537 25.906 101.475 25.8592 101.43 25.7958C101.378 25.7317 101.344 25.6659 101.329 25.5985C101.314 25.531 101.317 25.4692 101.338 25.4129C101.351 25.3558 101.385 25.3155 101.439 25.292L102.743 24.9592L103.048 21.8864C103.08 21.7947 103.135 21.7311 103.213 21.6955C103.291 21.6599 103.367 21.6497 103.439 21.6647C103.52 21.6733 103.59 21.7065 103.651 21.7641C103.712 21.8146 103.75 21.8771 103.764 21.9518C103.726 22.1745 103.689 22.412 103.655 22.6644C103.621 22.9095 103.587 23.1583 103.553 23.4107C103.527 23.6566 103.505 23.8993 103.487 24.1388C103.469 24.371 103.461 24.586 103.462 24.7836L105.24 24.2819C105.345 24.2639 105.425 24.2834 105.478 24.3402C105.532 24.3899 105.562 24.4553 105.568 24.5364C105.583 24.6111 105.571 24.683 105.534 24.7522C105.497 24.8214 105.441 24.8666 105.364 24.8877L103.382 25.5322C103.375 25.6046 103.36 25.7785 103.338 26.0542C103.317 26.3226 103.29 26.6416 103.258 27.0113C103.226 27.381 103.191 27.776 103.154 28.1963C103.116 28.6166 103.078 29.0112 103.039 29.3801C103.007 29.7497 102.976 30.072 102.947 30.3469C102.925 30.6153 102.911 30.7856 102.903 30.858C102.863 31.0951 102.781 31.207 102.656 31.1937C102.531 31.1804 102.402 31.1081 102.268 30.9767L102.663 25.7079Z" stroke="#918D90" stroke-width="0.2"/>
<path d="M106.654 31.3568L104.806 25.6401C104.756 25.5471 104.751 25.4587 104.789 25.3751C104.829 25.2842 104.888 25.2173 104.966 25.1745C105.045 25.1317 105.131 25.1226 105.225 25.1472C105.327 25.1654 105.413 25.233 105.482 25.3501L106.996 30.3399L108.528 25.0496C108.574 25.0326 108.627 25.02 108.687 25.0118C108.755 25.0044 108.818 25.0074 108.876 25.0209C108.941 25.0351 108.997 25.0631 109.045 25.1047C109.092 25.1464 109.119 25.2078 109.125 25.2889C109.057 25.5743 108.963 25.9373 108.842 26.378C108.721 26.8186 108.591 27.2729 108.452 27.7409C108.314 28.2017 108.178 28.6444 108.043 29.069C107.917 29.4871 107.819 29.8205 107.748 30.0689C107.702 30.2177 107.643 30.4199 107.572 30.6756C107.501 30.9241 107.42 31.1971 107.329 31.4946C107.245 31.7929 107.153 32.1013 107.052 32.4198C106.958 32.7463 106.865 33.0583 106.774 33.3558C106.69 33.6541 106.606 33.9231 106.521 34.1628C106.443 34.4105 106.377 34.6083 106.324 34.7563C106.301 34.8415 106.25 34.9019 106.172 34.9375C106.094 34.9731 106.011 34.9826 105.924 34.9659C105.837 34.9493 105.756 34.9114 105.68 34.8522C105.612 34.7937 105.58 34.7171 105.582 34.6223L106.654 31.3568Z" stroke="#918D90" stroke-width="0.2"/>
<path d="M113.824 18.8444C113.003 25.226 112.181 31.6077 111.36 37.9883C111.333 38.1959 111.661 38.1937 111.687 37.9883C112.507 31.6066 113.329 25.2249 114.15 18.8444C114.177 18.6367 113.85 18.6389 113.824 18.8444Z" fill="#B0AEAF" stroke="#B0AEAF" stroke-width="0.5"/>
<path d="M107.402 89.3196L107.331 89.1152L106.94 89.3696L107.402 89.3196Z" fill="#DAD8DA"/>
<path d="M103.417 89.0531C103.058 89.2727 102.374 89.4065 102.357 89.8337L103.008 89.4608C103.093 89.7848 103.519 89.7685 103.896 89.6685L103.47 89.6837C103.58 89.6424 103.512 89.4369 103.623 89.3945C104.272 89.5674 104.444 89.1249 105.042 89.4847L105.007 89.5184L105.484 89.3151C105.633 89.3651 105.572 89.5152 105.523 89.5728C105.948 89.4075 106.271 89.2336 106.845 89.2597C106.408 88.6704 105.58 89.6989 105.145 89.1097L105.179 89.076C104.622 89.2869 103.982 88.902 103.417 89.0542V89.0531Z" fill="#DAD8DA"/>
<path d="M105.525 89.5703C105.512 89.5758 105.5 89.5801 105.488 89.5856C105.49 89.602 105.506 89.5921 105.525 89.5703Z" fill="#DAD8DA"/>
<path d="M82.5572 88.4492L82.5332 88.542C82.5681 88.5081 82.5998 88.4754 82.5572 88.4492Z" fill="#DAD8DA"/>
<path d="M89.5651 89.7093C89.5531 89.7049 89.5432 89.7016 89.5312 89.6973C89.4843 89.826 89.5083 89.7944 89.5651 89.7093Z" fill="#DAD8DA"/>
<path d="M44.3991 88.1316L44.2627 87.9941C44.2954 88.1207 44.3434 88.148 44.3991 88.1316Z" fill="#DAD8DA"/>
<path d="M40.7062 82.7459L40.6968 82.7344C40.6968 82.7344 40.7041 82.7428 40.7062 82.7459Z" fill="#DAD8DA"/>
<path d="M40.1959 87.3789L40.0879 87.4313C40.1566 87.4291 40.1872 87.4095 40.1959 87.3789Z" fill="#DAD8DA"/>
<path d="M39.0995 84.5312C39.1039 84.4406 39.1017 84.3544 39.081 84.2715C39.034 84.3468 39.0493 84.4537 39.0995 84.5312Z" fill="#DAD8DA"/>
<path d="M40.7793 82.8193C40.7513 82.7989 40.7276 82.773 40.7061 82.7461C40.7287 82.7763 40.7513 82.8053 40.7793 82.8193Z" fill="#DAD8DA"/>
<path d="M43.8228 90.0508L43.9369 90.3617C43.9369 90.2606 43.8771 90.1541 43.8228 90.0508Z" fill="#DAD8DA"/>
<path d="M38.6468 83.8797C38.6915 83.8219 38.7057 83.7586 38.7068 83.6953C38.6566 83.7411 38.6271 83.8055 38.6468 83.8797Z" fill="#DAD8DA"/>
<path d="M102.799 89.0679C102.886 89.0646 102.984 89.0592 103.103 89.0277C102.991 89.0038 102.892 89.0244 102.799 89.0679Z" fill="#DAD8DA"/>
<path d="M60.9834 90.541C60.9594 90.5737 60.9397 90.613 60.9277 90.6589C60.9965 90.6327 60.9997 90.589 60.9834 90.541Z" fill="#DAD8DA"/>
<path d="M50.9293 90.3691L50.897 90.3788C50.9056 90.3918 50.9174 90.4079 50.9379 90.4284L50.9304 90.3691H50.9293Z" fill="#DAD8DA"/>
<path d="M53.8655 90.3535C53.8515 90.3729 53.8375 90.3955 53.8257 90.4192C53.8537 90.3912 53.8623 90.3708 53.8655 90.3535Z" fill="#DAD8DA"/>
<path d="M48.7083 90.6641C48.6723 90.6902 48.6352 90.723 48.6035 90.7688L48.7083 90.6641Z" fill="#DAD8DA"/>
<path d="M46.5882 90.3213C46.6817 90.4322 46.5784 90.5344 46.4773 90.6366C47.0057 90.791 47.1861 90.4093 47.733 90.6833L47.4764 90.5289C47.8352 90.3083 48.4929 90.268 48.8082 90.567L48.7082 90.667C49.0495 90.4246 49.5779 90.8877 49.7247 90.6812C49.5877 90.5442 49.7334 90.4692 49.5192 90.3398L50.3835 90.0952L50.4433 90.5126L50.8977 90.3789C50.7879 90.2104 51.5022 90.5181 51.5196 90.1245C51.7761 90.2789 51.4098 90.4398 51.3152 90.5996C51.5717 90.4822 51.5968 90.6605 51.8359 90.4235L52.0838 90.7899L52.7513 90.5365C52.7176 90.5703 52.7578 90.5963 52.7263 90.63C53.034 90.3246 53.4949 90.8203 53.8885 90.293C53.8689 90.3126 53.8744 90.33 53.8678 90.3539C54.0831 90.0691 54.6028 90.2832 54.7941 90.3474C55.1376 90.28 54.9409 89.9984 54.9561 89.8451C55.9476 89.9506 55.6312 89.9234 56.4705 89.5005C56.9641 89.9625 55.8715 90.2311 56.5031 90.5561C56.5912 90.3354 57.0326 90.1658 57.5305 90.0821C57.9828 90.2452 58.7427 90.3746 59.1786 90.692L59.1373 90.393L59.7777 90.2343L59.4091 90.6659C59.5124 90.5648 59.8353 90.3789 60.0505 90.2343C60.717 89.981 60.4191 90.891 60.9398 90.442C60.9594 90.4746 60.9768 90.5072 60.9877 90.5376C61.1562 90.3093 61.5911 90.3985 62.0933 90.318L61.9139 90.6996L61.59 90.6137C61.7607 90.9888 62.1281 90.5561 62.4445 90.5822C62.7772 90.455 62.6163 90.1408 62.7945 90.0289C62.9141 90.0473 63.0935 89.9364 63.1881 90.0473C63.4773 90.168 63.2142 90.4985 63.1196 90.6605C63.3762 90.2702 63.4621 90.3213 64.0252 90.1691C64.0524 90.355 64.0111 90.4365 63.9361 90.4724C64.0546 90.4257 64.1589 90.3441 64.222 90.1789L64.4101 90.4017C65.0439 90.7279 65.0515 89.6973 65.8125 89.8266C65.606 90.0299 66.4703 89.7864 66.7018 90.0332C66.4366 90.0919 66.8214 90.5963 66.6583 90.8257C67.2661 90.9725 66.9062 90.3746 67.402 90.2908L67.1965 90.767C67.6748 90.5637 67.315 90.5116 67.8031 90.368C67.6672 90.5039 68.0173 90.4974 67.727 90.6485C68.3597 90.7029 68.1956 90.6583 68.7522 90.7203L68.8033 90.2604C68.9903 90.2093 69.0588 90.4148 69.111 90.4996C69.0338 90.5072 68.9131 90.4898 68.924 90.5496C69.1371 90.9508 69.2827 90.3289 69.5306 90.6974C69.4697 90.5518 69.4023 90.3474 69.6328 90.3224C69.5556 90.6029 69.984 90.5877 69.9992 90.7062C69.8546 90.5105 70.4949 90.6224 70.5297 90.3159C70.795 90.53 70.4428 90.5376 70.4264 90.6909C70.6493 90.3343 71.3592 90.6507 71.5647 90.4474C71.5691 90.4757 71.5799 90.4963 71.5788 90.5137C71.8637 90.2985 72.3323 90.2495 72.8965 89.9397L72.7008 90.2028C73.2661 90.3235 73.052 89.6505 73.5216 89.6603C73.4183 90.0354 74.2989 89.6386 74.0848 90.0549C74.3674 89.8429 74.6675 89.7494 74.8545 89.4266C75.1197 89.6407 74.3413 89.9364 74.7088 90.0473L75.11 89.8538L75.1784 90.0582C75.1958 89.9049 75.5459 89.8973 75.5296 89.7777C75.5894 90.0223 75.747 90.1963 75.7275 90.3811C75.9808 90.3104 76.333 90.5474 76.5461 90.3354L76.5635 90.455C76.8114 90.0049 77.3321 90.3724 77.4604 89.9038L77.6137 90.1593C77.9985 90.118 77.9311 89.6407 78.1105 89.5309C78.2638 89.5146 78.453 89.4635 78.6139 89.507C78.1094 89.8038 78.8618 89.8745 78.9639 90.0441C79.1607 90.0539 79.7424 90.0212 79.9043 89.7929C79.6641 90.0299 79.8098 90.2267 79.3825 90.2419C79.6054 90.7029 80.0326 90.1419 80.511 90.2115L80.5034 90.4246C81.1861 90.2898 81.2122 89.9234 81.5112 89.5581C81.5884 89.8223 81.521 89.8908 81.3242 90.155C81.7764 90.3169 82.4961 90.1495 83.0082 90.1854C83.1669 90.3746 83.0593 90.4822 82.8886 90.5626C83.4202 90.3659 84.0714 90.6213 84.4096 90.156C84.2769 90.3409 84.6205 90.28 84.8151 90.3724C84.8161 90.2756 84.8553 90.1517 84.8781 90.1658C85.2043 89.9799 85.9207 89.8114 86.298 89.9832L86.1599 90.1191C87.0318 90.2061 87.4253 89.407 88.3755 89.7603C88.5451 89.8625 88.1951 90.143 88.5451 90.1354C88.7169 89.9658 88.6658 89.607 89.1094 89.7114L89.0757 90.018L89.3822 89.7125C89.229 89.457 88.7332 89.5396 89.0833 89.2602C89.4779 89.5505 89.4333 88.9808 89.9128 89.3222C89.8008 89.3526 89.6519 89.5853 89.5714 89.7081C90.5803 90.0821 90.9934 89.4255 92.0154 89.8234C92.5296 89.5864 93.1873 89.5461 93.5439 89.3254C93.5113 89.632 93.5113 89.9038 93.2721 90.1419C93.7081 90.1865 93.9212 89.4961 94.2201 89.9495C94.4343 89.5331 95.4345 89.6973 95.5454 89.1102C95.5617 89.2298 96.015 89.12 95.5541 89.4429C96.152 89.257 96.3325 89.9636 96.6054 89.9647C96.7587 89.9484 96.4347 89.5896 96.7848 89.5831C96.8272 89.6081 96.8369 89.6679 96.8793 89.694L97.0152 89.5581C97.1522 89.694 96.8598 89.8473 96.8445 90.0006C97.3327 90.13 97.6567 89.6712 98.2361 89.6396L98.1361 89.7408L98.7253 89.769L98.6916 89.8027L99.17 89.6005L99.1537 89.7527C99.2646 89.7114 99.2907 89.6168 99.444 89.6005L99.3929 89.7875C99.5472 89.4983 100.11 89.3472 100.384 89.3483L100.435 89.4331L101.086 89.0602C101.427 89.2657 100.641 89.5027 101.325 89.3689L101.145 89.7505C101.632 89.607 101.702 89.8125 102.035 89.6853C101.887 89.4885 101.657 89.5135 101.829 89.3439C102.205 89.7875 102.439 89.2385 102.807 89.0634C102.621 89.07 102.496 89.0634 102.366 89.2852C102.171 89.2754 102.298 89.0808 102.178 89.0624L101.898 89.2754L101.822 89.0113L101.342 89.2146C101.376 88.908 100.905 89.17 101.094 88.8471C100.759 88.9732 100.572 88.7514 100.265 89.058C100.042 88.8699 100.624 88.8373 100.384 88.8036C99.0504 89.0374 97.6751 88.9732 96.2912 88.8493L96.4271 88.7123C96.2912 88.8493 96.1118 88.9591 96.0096 89.0613C95.777 88.8123 94.8724 88.4862 94.5474 88.9449C94.5039 88.9188 94.5735 88.8514 94.6072 88.8167C94.1451 88.8667 93.3167 88.5318 92.66 88.571C92.3763 89.0569 91.6762 88.2535 91.4196 88.9167L91.5577 88.7808C91.7794 88.9678 91.2326 89.2385 91.1391 89.4016C90.9597 88.9667 91.1304 89.07 90.9152 88.6677L91.1739 88.8221L91.1206 88.4644C90.2748 89.3733 89.5725 88.0263 89.0452 88.6873C89.0778 88.6525 89.0702 88.5938 89.1039 88.5612C88.7615 88.3546 88.5136 88.8058 88.2581 88.9243C88.2309 88.7449 88.4125 88.6351 88.5473 88.4992C87.9418 88.3524 86.9155 88.8264 86.2501 88.534C86.011 88.7721 86.3349 88.858 86.0881 89.0374C85.8827 88.9678 85.7381 88.7721 85.9936 88.6536C85.4206 88.2002 84.0791 88.921 83.1984 88.5003C82.7288 88.7623 83.0191 88.8819 82.3015 89.0504C82.4711 88.8808 82.1396 88.4622 82.5657 88.447L82.6179 88.26C81.908 88.2155 80.96 88.135 80.5653 88.6623C80.5479 88.2698 80.4371 88.5851 80.1718 88.3709C80.062 88.4133 80.1805 88.4307 80.2251 88.4568C79.9598 88.7884 79.8315 88.4383 79.6434 88.4883L79.7108 88.4198L79.1977 88.6569C79.1129 88.6047 78.9868 88.5286 78.9694 88.409V88.6819C78.6943 88.6808 78.84 88.3318 78.4975 88.3992L78.5671 88.6036C78.3519 88.4742 78.0018 88.7547 77.9594 88.4568C77.9507 88.3981 77.9931 88.4231 78.0703 88.4144C77.7355 87.9958 77.1908 88.5394 76.7722 88.3416L76.8744 88.7851C76.4635 88.9199 76.6255 88.6916 76.6429 88.5373C76.3689 88.5373 76.3102 88.3927 75.9503 88.3394C75.7709 88.4492 75.8557 88.5014 75.7959 88.6286L75.4296 88.5166L75.6688 88.2785C75.0947 88.9145 74.25 88.1894 73.8651 88.7753C73.6521 88.6471 74.0608 88.5123 73.9325 88.4362C73.265 88.1437 72.429 88.8395 71.8735 88.5057C70.9668 88.1796 69.9166 88.4742 68.9088 88.2492L68.9251 88.3687L68.2075 88.2644C68.0108 88.5275 67.5226 88.3981 67.216 88.7047C67.2421 88.6112 67.1802 88.4655 67.2497 88.3981C66.9432 88.4318 66.6094 88.5579 66.43 88.3948L66.5333 88.2937C65.8571 88.2133 64.9167 88.1948 64.559 88.4144C64.3274 88.4394 64.3351 88.2263 64.2753 88.0806C63.8839 88.0633 63.6262 88.1807 63.3012 88.3666C63.2164 88.3155 63.1305 88.2644 63.0359 88.1535L62.8837 88.4416C62.7206 88.3992 62.8489 88.2035 62.7206 88.1263C62.1064 88.4655 61.3975 88.1481 60.9681 88.1633L61.0279 88.3079C60.8485 88.4188 60.5072 88.2122 60.7202 88.0687C59.8744 87.886 59.4569 88.5079 58.3122 88.4188C58.1589 87.8904 57.2772 88.5601 57.1152 87.9719C56.6292 88.1165 56.3205 87.8763 55.9791 88.2165C55.9693 88.1567 55.928 88.1317 56.0052 88.122C55.816 87.9013 55.1757 88.06 54.6887 88.2024L54.6636 88.0241C54.4843 88.4057 53.6471 88.2839 53.4667 88.6666C53.4145 88.5818 53.5613 88.5046 53.6298 88.4372C53.3808 88.0709 53.1851 88.6068 52.86 88.521C52.8861 88.4275 52.7915 88.3166 52.86 88.2481C51.7816 87.8197 50.2008 88.5046 48.7919 88.2024C48.3983 88.1828 48.9299 88.6112 48.4168 88.5753C48.2711 88.3785 48.6734 88.185 48.3483 88.098C48.1091 88.3361 48.0232 88.285 47.708 88.2579C47.7667 88.1307 47.7167 88.0448 47.9395 87.96C47.7591 87.798 47.1611 88.2557 46.8024 87.9317C46.8187 88.0502 46.7513 88.1187 46.6839 88.1861C46.1446 88.5166 45.4619 87.8339 45.4097 88.0208C45.4097 88.0208 45.2216 88.072 45.3836 88.1144C45.1868 88.1046 44.9053 88.0448 44.9564 87.8567C44.8531 87.9589 44.7607 88.1209 44.6052 88.1372L44.6911 87.9154C44.6008 87.9621 44.4965 88.1013 44.4084 88.1274L44.5454 88.2644C44.3225 88.0774 43.8768 88.5177 43.8953 88.0926L43.9714 88.0839L43.5528 87.8871C43.3821 88.0567 43.2104 88.2274 42.9299 88.1654C42.8777 87.9448 42.6983 87.9187 42.4874 87.9415C42.4515 87.9447 42.4537 87.948 42.4504 87.9524L42.4385 87.9665C42.4298 87.9763 42.42 87.9871 42.4091 87.9969C42.3874 88.0154 42.3635 88.0285 42.3526 88.0165L42.4189 87.8632C42.3743 87.9534 42.32 87.9882 42.2787 88.0035C42.2504 87.985 42.2493 87.9371 42.2178 87.9828C42.2091 87.9567 42.2221 87.9078 42.2569 87.8719C42.2906 87.8339 42.3482 87.8099 42.4124 87.7849C42.3906 87.7904 42.3765 87.7991 42.3569 87.7882C42.32 87.7186 42.2808 87.6436 42.2384 87.5729C42.1526 87.4316 42.0504 87.3088 41.9112 87.2903L42.1384 86.7565C41.5372 86.6565 42.0721 85.8443 41.5089 85.9846C41.5253 85.7204 41.6644 85.7389 41.7122 85.5443C41.3404 85.2932 41.2839 84.9366 41.2263 84.5778L41.2817 84.5517C41.2241 84.193 40.823 83.8722 40.6501 83.3971L41.0436 83.1688C40.9078 82.9329 40.562 82.9688 40.5794 82.7024C40.6273 82.6274 40.6653 82.6731 40.7077 82.7307C40.5522 82.5198 40.5653 82.1676 40.6164 81.9588C40.2022 81.6849 40.2315 81.3718 39.8065 81.1478C40.0946 80.7532 40.0989 81.5218 40.3761 81.1739C40.4207 80.5955 40.0543 80.1291 39.6999 79.6127C39.7651 79.5399 39.851 79.5834 39.9478 79.5812C39.9478 79.5812 38.5845 78.7267 38.2453 79.0626C37.9246 79.0028 37.7115 78.8887 37.6245 79.4453C37.8376 79.5584 38.1735 79.9552 37.8898 80.1335L38.192 80.0748C38.5236 80.6868 37.606 80.3118 37.8474 81.0956L37.8952 80.901C37.9572 81.0434 38.1811 81.1065 38.1344 81.3011C38.0681 81.375 37.9952 81.2804 37.9093 81.237L38.5008 81.7686C38.3377 81.8468 38.2398 81.849 38.0702 81.7588C38.2616 82.3524 38.5714 81.4783 38.6736 82.2426C38.5845 82.4133 38.4801 82.2491 38.3529 82.1828C38.2029 82.5948 38.5019 82.7535 38.7639 83.0558C38.5029 83.1384 38.466 82.8992 38.3834 83.2373C38.504 83.1384 38.7215 83.034 38.8139 83.2482C38.5171 83.2199 38.7236 83.4591 38.7204 83.6939C38.7987 83.6233 38.928 83.6026 38.9987 83.6733C39.0715 83.7668 38.9933 83.8885 39.0552 84.031L39.2357 83.6885C39.5945 83.9864 39.2759 84.3104 39.2476 84.6267C39.1922 84.618 39.1444 84.5789 39.1118 84.5267C39.0933 84.8561 38.9737 85.2257 39.3129 85.5345L39.2705 85.5117C39.7412 86.1433 39.6445 85.1627 40.1337 85.9139C40.1598 86.202 39.2368 86.04 39.7314 86.5749C39.8684 86.2107 40.3946 86.8174 40.6012 87.1446L39.9826 86.9272C40.0206 87.0728 40.237 87.2805 40.2087 87.3751L40.3174 87.3229C40.7414 87.1663 40.3946 87.8023 40.7349 87.9828C40.0489 87.8371 40.1565 87.7849 39.551 87.9024C39.7488 87.9806 39.9434 88.0698 40.0978 88.1991C40.1761 88.2676 40.2402 88.3307 40.2979 88.4351C40.3663 88.5753 40.4196 88.7286 40.4577 88.9123C40.3587 88.8558 40.2565 88.7895 40.1522 88.7134C40.1 88.6753 40.0467 88.634 39.9924 88.5905L39.9108 88.5242L39.8402 88.4938L39.8456 88.5275L39.8489 88.5449L39.8565 88.5753L39.8912 88.6992C39.9163 88.7819 39.9445 88.8634 39.976 88.9439C40.0391 89.1048 40.113 89.2591 40.1935 89.4016C40.3555 89.6864 40.5414 89.918 40.7208 90.0734C41.3263 89.8853 41.7927 89.6614 42.0949 89.4929C41.971 89.6668 41.9579 89.7853 41.9438 89.8973C41.9253 90.0093 41.9069 90.1158 41.6666 90.2637L42.196 90.2332L42.4461 90.218L42.6005 90.2017C42.5374 90.3289 42.4885 90.4561 42.4156 90.5833C42.6853 90.1919 42.9484 90.4659 42.9168 89.9549C42.8494 90.0223 42.857 90.0821 42.7375 90.0647C42.7538 89.9103 42.8646 89.5961 43.1821 89.6233C43.3952 89.7516 43.0538 89.819 43.1114 89.9636C43.318 89.7592 43.3267 90.0919 43.5398 89.9473L43.3528 89.7266C43.505 89.4363 43.7039 89.719 43.9148 89.5744C43.6615 89.6973 43.742 89.8679 43.8344 90.0473L43.8214 90.0093C43.9746 89.993 44.1801 89.7897 44.2834 89.9604L44.1486 90.368L44.3791 90.0713C44.4639 90.1223 44.5237 90.268 44.3791 90.3441C45.0792 90.6018 44.3693 89.4668 45.2858 89.8527C45.2684 90.0071 45.1662 90.1093 44.9183 90.0147C44.8748 90.2615 44.9357 90.4061 45.1825 90.5007C45.1868 90.5192 45.1825 90.5311 45.1825 90.5463C45.6608 90.5583 46.2838 90.5876 46.6023 90.3169L46.5882 90.3213Z" fill="#DAD8DA"/>
<path d="M45.1686 90.55C44.9132 90.5435 44.6968 90.5424 44.5957 90.5957C44.6435 90.6761 45.1784 90.8055 45.1686 90.55Z" fill="#DAD8DA"/>
<path d="M82.8835 90.5664C82.8508 90.5784 82.8191 90.5904 82.7886 90.6068C82.8213 90.5937 82.8529 90.5806 82.8835 90.5664Z" fill="#DAD8DA"/>
<path d="M84.9154 90.4666C84.8936 90.423 84.8554 90.3957 84.8096 90.375C84.8096 90.4557 84.8336 90.5168 84.9154 90.4666Z" fill="#DAD8DA"/>
<path d="M63.9229 90.4779C63.9229 90.4779 63.9283 90.4757 63.9315 90.4746C63.9283 90.4757 63.925 90.4768 63.9229 90.4779Z" fill="#DAD8DA"/>
<path d="M75.4644 90.7272C75.6437 90.5979 75.7111 90.4891 75.722 90.3848C75.61 90.4163 75.5155 90.5076 75.4644 90.7272Z" fill="#DAD8DA"/>
<path d="M71.5733 90.5176C71.5485 90.537 71.5215 90.5553 71.5 90.5768C71.5571 90.5553 71.5722 90.537 71.5733 90.5176Z" fill="#DAD8DA"/>
<path d="M63.313 90.6731C63.4858 90.5416 63.7261 90.5535 63.924 90.4785C63.7555 90.5492 63.4337 90.4133 63.313 90.6731Z" fill="#DAD8DA"/>
<path d="M87.3957 90.0488L87.1895 90.2529L87.4055 90.1088L87.3957 90.0488Z" fill="#DAD8DA"/>
<path d="M85.4965 90.1625C85.4117 90.1103 85.0779 90.2375 85.1725 90.3484C85.2747 90.2462 85.3877 90.2049 85.4965 90.1625Z" fill="#DAD8DA"/>
<path d="M78.2325 89.8848L78.1484 90.1063L78.3197 89.936L78.2325 89.8848Z" fill="#DAD8DA"/>
<path d="M26.7004 68.5469L37.6036 78.8815L29.9032 85.0326L19 74.698L26.7004 68.5469Z" fill="#F1F1F1" stroke="#B0AEAF" stroke-linejoin="round"/>
<path d="M37.604 78.8789H107.115L111.505 88.9015H41.994L37.604 78.8789Z" fill="#F1F1F1" stroke="#B0AEAF" stroke-linejoin="round"/>
</svg>
