<svg width="16" height="14" viewBox="0 0 16 14" fill="none" xmlns="http://www.w3.org/2000/svg">
    <path d="M7.63543 0C7.65921 5.32038e-05 7.68253 0.00598086 7.70379 0.0166016C7.72515 0.0272728 7.74416 0.0424463 7.75848 0.0615234L11.321 4.80371L15.0368 2.51953C15.1473 2.45326 15.2863 2.54247 15.2712 2.66992L13.8122 13.7334C13.793 13.8857 13.6612 14 13.5085 14H1.76532C1.61073 14 1.48072 13.8838 1.45965 13.7334L0.000668537 2.66992C-0.0163552 2.54236 0.125291 2.45286 0.234067 2.51953L3.95086 4.80371L7.51239 0.0615234C7.52664 0.0425997 7.54491 0.0272331 7.5661 0.0166016C7.58747 0.00592951 7.61153 0 7.63543 0ZM7.63641 6.36328C6.20375 6.36328 5.03778 7.50535 5.03778 8.90918C5.03783 10.313 6.20378 11.4541 7.63641 11.4541C9.06885 11.4539 10.234 10.3128 10.2341 8.90918C10.2341 7.50549 9.06889 6.36352 7.63641 6.36328ZM7.63641 7.81738C8.24988 7.81762 8.74774 8.30574 8.74774 8.90918C8.74769 9.51031 8.24985 10.0007 7.63641 10.001C7.02277 10.001 6.52416 9.51272 6.52411 8.90918C6.52411 8.30786 7.02274 7.81738 7.63641 7.81738Z" fill="white"/>
    </svg>
    